<svg width="472" height="448" viewBox="0 0 472 448" fill="none" xmlns="http://www.w3.org/2000/svg">
<path d="M455.53 0.000153139H283.79C283.628 0.00307532 283.472 0.0649612 283.351 0.174284C283.231 0.283607 283.155 0.432914 283.136 0.594395C283.118 0.755877 283.159 0.918523 283.252 1.05204C283.344 1.18556 283.482 1.28085 283.64 1.32015C300.897 5.34412 316.29 15.0748 327.329 28.9367C338.367 42.7987 344.403 59.9804 344.46 77.7001V118.35C344.452 129.039 341.896 139.573 337.004 149.077C332.112 158.581 325.025 166.782 316.33 173C314.956 173.969 313.821 175.238 313.011 176.711C312.201 178.184 311.737 179.822 311.654 181.501C311.571 183.179 311.872 184.855 312.533 186.401C313.194 187.946 314.199 189.321 315.47 190.42C324.545 198.098 331.84 207.66 336.847 218.44C341.855 229.221 344.456 240.963 344.47 252.85L359.97 421.63C359.97 430.96 446.89 447.85 446.89 447.85H455.6C459.844 447.85 463.913 446.164 466.914 443.164C469.914 440.163 471.6 436.094 471.6 431.85V16.0002C471.6 13.8931 471.184 11.8068 470.375 9.86101C469.567 7.91522 468.382 6.14828 466.889 4.66162C465.396 3.17497 463.624 1.99788 461.674 1.19793C459.725 0.397984 457.637 -0.00906522 455.53 0.000153139Z" fill="#212719"/>
<path d="M446.86 3.12529e-06H275.13C274.967 0.000603386 274.809 0.0608288 274.687 0.16936C274.565 0.277891 274.487 0.427254 274.467 0.589377C274.448 0.751499 274.488 0.915217 274.58 1.04976C274.673 1.1843 274.811 1.2804 274.97 1.32C292.227 5.34397 307.62 15.0746 318.658 28.9366C329.696 42.7986 335.733 59.9803 335.79 77.7V118.35C335.781 129.038 333.226 139.57 328.336 149.074C323.446 158.578 316.362 166.78 307.67 173C306.296 173.968 305.16 175.236 304.349 176.709C303.538 178.181 303.073 179.819 302.989 181.498C302.905 183.177 303.204 184.853 303.865 186.399C304.525 187.945 305.529 189.32 306.8 190.42C315.875 198.098 323.169 207.659 328.177 218.44C333.185 229.221 335.786 240.963 335.8 252.85L351.27 421.67C351.27 432.76 446.87 447.89 446.87 447.89C451.113 447.89 455.183 446.204 458.184 443.204C461.184 440.203 462.87 436.133 462.87 431.89V16C462.87 13.898 462.456 11.8166 461.651 9.87476C460.846 7.9329 459.667 6.16863 458.18 4.68276C456.693 3.19689 454.928 2.01855 452.986 1.21506C451.044 0.411572 448.962 -0.00131062 446.86 3.12529e-06Z" fill="#414E32"/>
<path d="M196.24 0H18.5299C14.7585 0 11.1416 1.49817 8.47486 4.16494C5.8081 6.83171 4.30992 10.4486 4.30992 14.22V439.77C4.12992 443.94 15.8099 447.85 15.8099 447.85H20.9699C20.9699 447.85 23.2499 447.79 24.4699 447.71C24.4699 447.71 120.07 432.58 120.07 421.49L135.57 252.73C135.584 240.844 138.185 229.104 143.193 218.325C148.201 207.546 155.495 197.986 164.57 190.31C165.85 189.217 166.861 187.845 167.528 186.3C168.194 184.754 168.496 183.077 168.412 181.396C168.328 179.715 167.86 178.076 167.043 176.605C166.226 175.134 165.082 173.87 163.7 172.91C155.015 166.695 147.934 158.502 143.044 149.007C138.154 139.512 135.596 128.99 135.58 118.31V77.67C135.638 59.9554 141.674 42.779 152.71 28.9223C163.747 15.0656 179.137 5.33983 196.39 1.32C196.548 1.28069 196.686 1.18541 196.778 1.05189C196.871 0.91837 196.912 0.755724 196.894 0.594242C196.875 0.432761 196.799 0.283454 196.679 0.174131C196.558 0.064808 196.402 0.00292218 196.24 0Z" fill="#212719"/>
<path d="M15.97 0H187.73C187.893 0.000600261 188.051 0.0608256 188.173 0.169357C188.295 0.277888 188.373 0.427251 188.393 0.589373C188.412 0.751496 188.372 0.915214 188.28 1.04976C188.187 1.1843 188.048 1.2804 187.89 1.32C170.631 5.34202 155.235 15.0719 144.195 28.934C133.155 42.7961 127.118 59.9789 127.06 77.7V118.35C127.071 129.039 129.628 139.571 134.52 149.075C139.411 158.579 146.497 166.78 155.19 173C156.565 173.968 157.702 175.236 158.513 176.709C159.325 178.182 159.789 179.821 159.872 181.5C159.955 183.18 159.654 184.856 158.992 186.402C158.329 187.947 157.323 189.322 156.05 190.42C146.975 198.098 139.68 207.659 134.673 218.44C129.665 229.221 127.064 240.963 127.05 252.85L111.6 421.63C111.6 432.72 16 447.85 16 447.85C11.7565 447.85 7.68687 446.164 4.68629 443.164C1.68571 440.163 0 436.093 0 431.85V16C-7.45007e-06 11.7617 1.68158 7.69661 4.67568 4.69689C7.66978 1.69716 11.7317 0.00794676 15.97 0Z" fill="#414E32"/>
</svg>
