<svg width="1160" height="449" viewBox="0 0 1160 449" fill="none" xmlns="http://www.w3.org/2000/svg">
<path d="M678.21 28.0163V164.016C678.21 171.923 676.147 178.313 672.02 183.186C667.893 188.06 662.32 190.493 655.3 190.486C651.33 190.575 647.372 190.017 643.58 188.836C640.237 187.692 637.171 185.859 634.58 183.456C631.374 180.443 628.424 177.168 625.76 173.666L567.76 94.3263V162.636C567.76 171.643 565.523 178.536 561.05 183.316C556.577 188.096 550.037 190.486 541.43 190.486C532.823 190.486 526.28 188.096 521.8 183.316C517.32 178.536 515.083 171.643 515.09 162.636V29.4363C515.09 20.0563 517.327 12.8863 521.8 7.92628C526.273 2.96628 532.33 0.392947 539.97 0.20628C546.29 -0.160386 551.47 0.482947 555.51 2.13628C559.859 4.01045 563.764 6.78073 566.97 10.2663C571.408 15.0758 575.501 20.1917 579.22 25.5763L625.58 89.8863V28.0163C625.58 19.0096 627.817 12.1163 632.29 7.33628C636.763 2.55628 643.29 0.179614 651.87 0.20628C660.483 0.20628 667.027 2.59628 671.5 7.37628C675.973 12.1563 678.21 19.0363 678.21 28.0163Z" fill="#414E32"/>
<path d="M843.09 83.716V162.716C843.09 171.696 840.85 178.566 836.37 183.326C831.89 188.086 825.263 190.463 816.49 190.456C807.883 190.456 801.253 188.079 796.6 183.326C793.592 180.156 791.516 176.219 790.6 171.946C787.359 176.944 783.124 181.223 778.16 184.516C771.58 188.849 763.637 191.016 754.33 191.016C743.443 191.016 734.267 188.816 726.8 184.416C719.263 179.912 713.365 173.114 709.97 165.016C706.19 156.469 704.3 145.856 704.3 133.176V83.716C704.3 74.7227 706.673 67.6293 711.42 62.436C716.167 57.2427 722.927 54.646 731.7 54.646C740.467 54.646 747.227 57.2427 751.98 62.436C756.733 67.6293 759.097 74.7227 759.07 83.716V133.126C759.07 137.879 760.07 141.753 762.07 144.746C764.07 147.739 767.187 149.236 771.42 149.236C775.892 149.404 780.248 147.789 783.53 144.746C785.098 143.255 786.331 141.448 787.148 139.445C787.965 137.442 788.348 135.288 788.27 133.126V83.716C788.27 74.7227 790.64 67.6293 795.38 62.436C800.12 57.2427 806.883 54.646 815.67 54.646C824.437 54.646 831.197 57.2427 835.95 62.436C840.703 67.6293 843.083 74.7227 843.09 83.716Z" fill="#414E32"/>
<path d="M934.97 191.016C920.923 191.016 910.08 188.903 902.44 184.676C894.902 180.563 889.242 173.7 886.64 165.516C883.74 156.976 882.293 146.186 882.3 133.146V97.4462H876.41C873.359 97.4855 870.335 96.8717 867.54 95.6462C860.713 92.5596 857.3 86.4662 857.3 77.3662C857.3 70.8596 859.057 65.8829 862.57 62.4362C864.223 60.773 866.194 59.4598 868.366 58.5749C870.538 57.6901 872.865 57.2518 875.21 57.2862H882.33V45.1362C882.33 36.1496 884.523 29.2796 888.91 24.5262C893.297 19.7729 899.88 17.3929 908.66 17.3862C917.44 17.3862 924.027 19.7662 928.42 24.5262C932.813 29.2862 934.997 36.1562 934.97 45.1362V57.2862H945.27C951.937 57.2862 957.03 59.0029 960.55 62.4362C964.07 65.8696 965.827 70.8462 965.82 77.3662C965.82 83.8862 964.063 88.8629 960.55 92.2962C957.037 95.7296 951.943 97.4462 945.27 97.4462H934.97V129.446C934.941 132.591 935.205 135.731 935.76 138.826C936.064 141.054 936.977 143.155 938.4 144.896C939.62 146.216 941.4 146.706 943.66 146.356C945.42 145.996 947.66 145.736 949.46 145.556C952.387 145.018 955.408 145.635 957.89 147.276C960.588 149.023 962.841 151.376 964.47 154.146C966.148 156.814 967.144 159.853 967.37 162.996C967.717 168.81 966.75 173.7 964.47 177.666C962.19 181.633 958.24 184.933 952.62 187.566C949.521 188.934 946.235 189.827 942.87 190.216C940.254 190.632 937.616 190.899 934.97 191.016Z" fill="#414E32"/>
<path d="M1090.4 76.6163C1090.35 80.2184 1089.73 83.7901 1088.56 87.1963C1087.29 90.9647 1085.07 94.3385 1082.1 96.9863C1079.03 99.8196 1074.59 101.486 1068.8 101.986L1062.48 102.516C1056.86 103.05 1052.34 104.196 1048.92 105.956C1045.67 107.54 1043.04 110.142 1041.41 113.366C1039.83 116.546 1039.04 120.693 1039.04 125.806V160.466C1039.04 169.466 1036.67 176.746 1031.93 182.306C1027.19 187.866 1020.34 190.643 1011.39 190.636C1002.25 190.636 995.27 187.86 990.45 182.306C985.63 176.753 983.214 169.473 983.2 160.466V84.2863C983.2 75.2863 985.534 68.0963 990.2 62.7163C994.867 57.3363 1001.5 54.6463 1010.09 54.6463C1018.69 54.6463 1025.27 57.0296 1029.84 61.7963C1033.75 65.8763 1035.99 71.5096 1036.54 78.6963C1037.41 76.0982 1038.52 73.5846 1039.85 71.1863C1042.65 65.9065 1046.87 61.5124 1052.03 58.4972C1057.19 55.4819 1063.09 53.9649 1069.07 54.1163C1073.98 54.1163 1077.98 55.3529 1081.07 57.8263C1084.07 60.1885 1086.47 63.2239 1088.07 66.6863C1089.56 69.7886 1090.35 73.1766 1090.4 76.6163Z" fill="#414E32"/>
<path d="M1131.23 190.666C1122.36 190.666 1115.54 188.019 1110.75 182.726C1105.96 177.433 1103.57 169.933 1103.56 160.226V85.876C1103.56 76.176 1105.96 68.546 1110.75 62.986C1115.54 57.426 1122.37 54.646 1131.23 54.646C1140.1 54.646 1146.93 57.426 1151.72 62.986C1156.51 68.546 1158.9 76.176 1158.91 85.876V160.226C1158.91 169.933 1156.56 177.433 1151.85 182.726C1147.14 188.019 1140.27 190.666 1131.23 190.666Z" fill="#414E32"/>
<path d="M1131.23 51.2562C1127.84 51.3136 1124.47 50.68 1121.33 49.394C1118.19 48.1081 1115.35 46.1967 1112.97 43.7762C1110.55 41.4669 1108.64 38.6852 1107.34 35.6041C1106.05 32.523 1105.4 29.2083 1105.44 25.8662C1105.37 22.4514 1106 19.0583 1107.29 15.8979C1108.59 12.7376 1110.52 9.87769 1112.97 7.49622C1117.84 2.69313 1124.4 0 1131.24 0C1138.07 0 1144.63 2.69313 1149.5 7.49622C1151.95 9.87769 1153.88 12.7376 1155.18 15.8979C1156.47 19.0583 1157.1 22.4514 1157.03 25.8662C1157.07 29.2083 1156.42 32.523 1155.13 35.6041C1153.83 38.6852 1151.92 41.4669 1149.5 43.7762C1147.12 46.1979 1144.28 48.11 1141.13 49.396C1137.99 50.682 1134.62 51.3149 1131.23 51.2562Z" fill="#414E32"/>
<path d="M1131.23 306.296C1127.8 306.342 1124.4 305.659 1121.25 304.294C1118.1 302.929 1115.28 300.912 1112.97 298.376C1110.52 295.862 1108.6 292.889 1107.31 289.629C1106.01 286.368 1105.38 282.883 1105.44 279.376C1105.35 275.796 1105.97 272.235 1107.26 268.895C1108.56 265.556 1110.5 262.504 1112.97 259.916C1115.31 257.414 1118.14 255.418 1121.28 254.054C1124.42 252.69 1127.81 251.986 1131.24 251.986C1134.66 251.986 1138.05 252.69 1141.19 254.054C1144.33 255.418 1147.16 257.414 1149.5 259.916C1151.97 262.504 1153.91 265.556 1155.21 268.895C1156.5 272.235 1157.12 275.796 1157.03 279.376C1157.09 282.883 1156.46 286.368 1155.16 289.629C1153.87 292.889 1151.95 295.862 1149.5 298.376C1147.19 300.913 1144.36 302.931 1141.21 304.296C1138.07 305.661 1134.66 306.343 1131.23 306.296Z" fill="#414E32"/>
<path d="M671.8 271.206C667.52 266.126 662.787 263.586 657.6 263.586C653.955 263.565 650.331 264.153 646.88 265.326C643.547 266.486 640.183 269.023 636.79 272.936C633.397 276.85 629.823 282.996 626.07 291.376L597.25 356.376L568.25 291.376C564.61 283.003 561.143 276.856 557.85 272.936C554.557 269.016 551.223 266.48 547.85 265.326C544.345 264.147 540.668 263.559 536.97 263.586C533.291 263.696 529.761 265.066 526.97 267.466C523.437 270.318 520.584 273.922 518.62 278.016C516.315 282.757 515.163 287.976 515.26 293.246V345.586H515.18L515.26 421.816C515.26 430.19 517.01 436.646 520.51 441.186C524.01 445.726 529.057 447.996 535.65 447.996H541.51C550.11 447.996 556.653 445.466 561.14 440.406C565.627 435.346 567.863 428.046 567.85 418.506V380.336C567.821 380.071 567.898 379.805 568.065 379.597C568.232 379.389 568.475 379.256 568.74 379.226C569.005 379.197 569.271 379.275 569.479 379.441C569.688 379.608 569.821 379.851 569.85 380.116L579.41 426.846C580.95 431.306 583.157 434.64 586.03 436.846C589.067 439.019 592.707 440.187 596.44 440.187C600.174 440.187 603.814 439.019 606.85 436.846C609.717 434.626 611.923 431.293 613.47 426.846L623.58 378.386C623.595 378.255 623.636 378.128 623.7 378.012C623.764 377.897 623.851 377.795 623.954 377.713C624.058 377.631 624.177 377.57 624.304 377.533C624.431 377.497 624.564 377.486 624.695 377.501C624.826 377.516 624.954 377.557 625.069 377.621C625.185 377.686 625.286 377.772 625.369 377.876C625.451 377.979 625.512 378.098 625.548 378.225C625.584 378.352 625.595 378.485 625.58 378.616V418.456C625.58 427.996 627.82 435.296 632.3 440.356C636.78 445.416 643.32 447.946 651.92 447.946H657.92C664.5 447.946 669.544 445.676 673.05 441.136C676.557 436.596 678.31 430.14 678.31 421.766V291.376C678.244 283.01 676.074 276.286 671.8 271.206Z" fill="#414E32"/>
<path d="M835.14 336.466C829.874 327.197 821.668 319.948 811.82 315.866C801.58 311.446 788.913 309.586 773.82 310.286C769.851 310.354 765.891 310.665 761.96 311.216C756.718 311.924 751.539 313.037 746.47 314.546C740.678 316.268 735.112 318.675 729.89 321.716C725.397 324.196 722.433 327.196 721 330.716C719.574 334.072 719.242 337.791 720.05 341.346C720.825 344.817 722.498 348.024 724.9 350.646C727.197 353.232 730.271 355.004 733.66 355.696C737.307 356.363 741.07 355.6 744.17 353.566C747.884 351.204 751.811 349.195 755.9 347.566C758.994 346.39 762.201 345.535 765.47 345.016C768.233 344.585 771.024 344.364 773.82 344.356C781.187 344.356 785.853 346.173 787.82 349.806C789.907 353.869 790.938 358.391 790.82 362.956V371.016L780.31 368.016C771.186 365.257 761.664 364.043 752.14 364.426C743.743 364.72 735.474 366.568 727.75 369.876C720.961 372.759 715.057 377.389 710.64 383.296C706.343 389.291 704.117 396.523 704.3 403.896C704.177 411.98 706.529 419.908 711.04 426.616C715.811 433.49 722.386 438.916 730.04 442.296C738.22 446.103 747.61 448.006 758.21 448.006C763.968 448.086 769.714 447.461 775.32 446.146C779.821 445.144 783.968 442.943 787.32 439.776C789.648 437.415 791.313 434.484 792.15 431.276C792.59 434.069 793.706 436.712 795.4 438.976C797.907 442.161 801.348 444.483 805.24 445.616C809.3 446.859 813.524 447.486 817.77 447.476C826.223 447.476 832.557 444.863 836.77 439.636C840.983 434.409 843.097 427.279 843.11 418.246V371.416C843.097 357.416 840.44 345.766 835.14 336.466ZM790.8 394.266C790.843 396.869 790.339 399.451 789.32 401.846C788.352 404.027 786.926 405.974 785.14 407.556C783.319 409.166 781.217 410.427 778.94 411.276C776.529 412.178 773.974 412.629 771.4 412.606C766.18 412.606 762.407 411.586 760.08 409.546C758.944 408.586 758.039 407.383 757.431 406.026C756.824 404.669 756.529 403.193 756.57 401.706C756.557 399.976 757.128 398.292 758.19 396.926C759.496 395.327 761.157 394.053 763.04 393.206C765.436 392.068 767.976 391.264 770.59 390.816C773.702 390.263 776.859 389.996 780.02 390.016H790.8V394.266Z" fill="#414E32"/>
<path d="M934.97 447.946C920.923 447.946 910.08 445.82 902.44 441.566C894.891 437.418 889.232 430.52 886.64 422.306C883.74 413.713 882.293 402.86 882.3 389.746V353.876H875.18C872.832 353.911 870.501 353.468 868.328 352.576C866.156 351.684 864.187 350.361 862.54 348.686C859.033 345.233 857.277 340.233 857.27 333.686C857.263 327.14 859.02 322.14 862.54 318.686C864.189 317.015 866.158 315.694 868.33 314.804C870.503 313.914 872.833 313.472 875.18 313.506H882.3V301.256C882.3 292.216 884.493 285.306 888.88 280.526C893.267 275.746 899.85 273.353 908.63 273.346C917.41 273.346 923.997 275.74 928.39 280.526C932.783 285.313 934.977 292.223 934.97 301.256V313.476H945.27C951.937 313.476 957.03 315.203 960.55 318.656C964.07 322.11 965.827 327.11 965.82 333.656C965.82 340.203 964.063 345.203 960.55 348.656C957.037 352.11 951.943 353.84 945.27 353.846H934.97V386.016C934.94 389.181 935.205 392.341 935.76 395.456C936.063 397.697 936.976 399.81 938.4 401.566C939.62 402.896 941.4 403.386 943.66 403.026C945.42 402.676 947.66 402.406 949.46 402.226C952.422 401.683 955.478 402.326 957.97 404.016C960.669 405.779 962.922 408.144 964.55 410.926C966.23 413.611 967.226 416.667 967.45 419.826C967.797 425.68 966.83 430.596 964.55 434.576C962.27 438.556 958.32 441.89 952.7 444.576C949.6 445.943 946.314 446.839 942.95 447.236C940.306 447.625 937.641 447.862 934.97 447.946Z" fill="#414E32"/>
<path d="M1090.4 333.246C1090.35 336.868 1089.73 340.46 1088.56 343.886C1087.3 347.675 1085.07 351.069 1082.1 353.736C1079.03 356.576 1074.59 358.263 1068.8 358.796L1062.48 359.326C1056.86 359.853 1052.34 361.006 1048.92 362.786C1045.67 364.385 1043.03 367.001 1041.41 370.236C1039.83 373.436 1039.04 377.606 1039.04 382.746V417.616C1039.04 426.663 1036.67 433.996 1031.93 439.616C1027.19 445.236 1020.34 448.03 1011.39 447.996C1002.25 447.996 995.27 445.203 990.45 439.616C985.63 434.03 983.214 426.696 983.2 417.616V341.016C983.2 331.97 985.534 324.736 990.2 319.316C994.867 313.896 1001.5 311.193 1010.09 311.206C1018.69 311.206 1025.27 313.6 1029.84 318.386C1033.76 322.5 1035.99 328.166 1036.54 335.386C1037.41 332.772 1038.52 330.242 1039.85 327.826C1042.65 322.618 1046.79 318.254 1051.85 315.186C1057.07 312.108 1063.05 310.54 1069.11 310.656C1074.02 310.656 1078.02 311.9 1081.11 314.386C1084.11 316.771 1086.51 319.826 1088.11 323.306C1089.58 326.417 1090.36 329.807 1090.4 333.246Z" fill="#414E32"/>
<path d="M1131.29 447.946C1122.4 447.946 1115.56 445.28 1110.76 439.946C1105.96 434.613 1103.56 427.073 1103.56 417.326V342.556C1103.56 332.796 1105.96 325.13 1110.76 319.556C1115.56 313.983 1122.4 311.19 1131.29 311.176C1140.18 311.176 1147.03 313.97 1151.82 319.556C1156.61 325.143 1159.01 332.81 1159.02 342.556V417.346C1159.02 427.106 1156.66 434.646 1151.95 439.966C1147.24 445.286 1140.35 447.946 1131.29 447.946Z" fill="#414E32"/>
<path d="M455.53 0.10611H283.79C283.628 0.109032 283.472 0.170918 283.351 0.280241C283.231 0.389564 283.155 0.538871 283.136 0.700352C283.118 0.861834 283.159 1.02448 283.252 1.158C283.344 1.29152 283.482 1.3868 283.64 1.42611C300.898 5.44844 316.292 15.1787 327.331 29.041C338.369 42.9033 344.405 60.0859 344.46 77.8061V118.456C344.446 129.139 341.887 139.664 336.995 149.161C332.103 158.657 325.019 166.852 316.33 173.066C314.956 174.035 313.821 175.304 313.011 176.777C312.201 178.25 311.737 179.888 311.654 181.566C311.571 183.245 311.872 184.921 312.533 186.467C313.194 188.012 314.199 189.387 315.47 190.486C324.545 198.164 331.84 207.726 336.847 218.506C341.855 229.287 344.456 241.029 344.47 252.916L359.97 421.736C359.97 431.066 446.89 447.956 446.89 447.956H455.6C459.844 447.956 463.913 446.27 466.914 443.27C469.914 440.269 471.6 436.2 471.6 431.956V16.1361C471.604 14.0265 471.191 11.937 470.384 9.98774C469.577 8.03849 468.393 6.268 466.9 4.77816C465.406 3.28832 463.633 2.10855 461.681 1.30673C459.73 0.50491 457.64 0.0968771 455.53 0.10611Z" fill="#212719"/>
<path d="M446.86 0.10596H275.13C274.967 0.10656 274.809 0.166786 274.687 0.275317C274.565 0.383848 274.487 0.533211 274.467 0.695334C274.448 0.857456 274.488 1.02117 274.581 1.15572C274.673 1.29026 274.812 1.38636 274.97 1.42596C292.228 5.44829 307.622 15.1785 318.661 29.0408C329.699 42.9032 335.735 60.0858 335.79 77.806V118.456C335.774 129.137 333.216 139.661 328.326 149.157C323.436 158.654 316.356 166.849 307.67 173.066C306.296 174.034 305.16 175.302 304.349 176.775C303.538 178.247 303.073 179.885 302.989 181.564C302.905 183.243 303.205 184.919 303.865 186.465C304.525 188.011 305.529 189.386 306.8 190.486C315.875 198.164 323.17 207.725 328.177 218.506C333.185 229.287 335.786 241.029 335.8 252.916L351.27 421.736C351.27 432.826 446.87 447.956 446.87 447.956C451.114 447.956 455.183 446.27 458.184 443.27C461.184 440.269 462.87 436.199 462.87 431.956V16.136C462.874 14.0314 462.463 11.9468 461.66 10.0015C460.857 8.05617 459.678 6.28836 458.191 4.79931C456.704 3.31027 454.937 2.12924 452.993 1.32388C451.049 0.518515 448.965 0.104641 446.86 0.10596Z" fill="#414E32"/>
<path d="M196.24 0.105957H18.53C14.7587 0.105957 11.1418 1.60413 8.47498 4.2709C5.80822 6.93767 4.31004 10.5546 4.31004 14.326V439.876C4.13004 444.046 15.81 447.956 15.81 447.956H20.97C20.97 447.956 23.25 447.896 24.47 447.816C24.47 447.816 120.07 432.686 120.07 421.596L135.57 252.836C135.584 240.95 138.185 229.21 143.193 218.431C148.201 207.652 155.495 198.092 164.57 190.416C165.841 189.317 166.845 187.942 167.505 186.397C168.165 184.852 168.465 183.177 168.381 181.499C168.297 179.821 167.832 178.184 167.021 176.712C166.21 175.24 165.074 173.973 163.7 173.006C155.013 166.794 147.931 158.603 143.039 149.11C138.147 139.617 135.587 129.095 135.57 118.416V77.776C135.629 60.06 141.666 42.8826 152.704 29.0257C163.743 15.1687 179.136 5.44384 196.39 1.42596C196.548 1.38665 196.686 1.29136 196.778 1.15785C196.871 1.02433 196.912 0.861681 196.894 0.700199C196.875 0.538718 196.799 0.389411 196.679 0.280088C196.558 0.170765 196.403 0.108879 196.24 0.105957Z" fill="#212719"/>
<path d="M15.97 0.105957H187.73C187.893 0.106557 188.051 0.166783 188.173 0.275314C188.295 0.383845 188.373 0.533208 188.393 0.695331C188.412 0.857453 188.372 1.02117 188.28 1.15571C188.187 1.29026 188.048 1.38636 187.89 1.42596C170.631 5.44798 155.235 15.1778 144.195 29.04C133.156 42.9021 127.118 60.0849 127.06 77.806V118.456C127.078 129.138 129.638 139.662 134.53 149.158C139.421 158.654 146.503 166.85 155.19 173.066C156.565 174.034 157.702 175.302 158.513 176.775C159.325 178.248 159.789 179.886 159.872 181.566C159.955 183.246 159.654 184.922 158.992 186.468C158.329 188.013 157.323 189.388 156.05 190.486C146.975 198.164 139.68 207.725 134.673 218.506C129.665 229.287 127.064 241.029 127.05 252.916L111.6 421.736C111.6 432.826 16 447.956 16 447.956C11.7566 447.956 7.6869 446.27 4.68632 443.27C1.68574 440.269 2.81802e-05 436.199 2.81802e-05 431.956V16.136C-0.00391517 14.0348 0.406033 11.9535 1.20647 10.0107C2.0069 8.06802 3.18215 6.30198 4.6651 4.81345C6.14805 3.32493 7.90967 2.14307 9.84937 1.33536C11.7891 0.527644 13.8689 0.109893 15.97 0.105957Z" fill="#414E32"/>
</svg>
