<svg width="644" height="448" viewBox="0 0 644 448" fill="none" xmlns="http://www.w3.org/2000/svg">
<path d="M163 28.0114V164.011C163 171.918 160.937 178.308 156.81 183.181C152.683 188.055 147.11 190.488 140.09 190.481C136.12 190.57 132.162 190.012 128.37 188.831C125.027 187.687 121.961 185.854 119.37 183.451C116.164 180.438 113.214 177.163 110.55 173.661L52.67 94.2914V162.601C52.67 171.608 50.4333 178.501 45.96 183.281C41.4867 188.061 34.9467 190.451 26.34 190.451C17.7333 190.451 11.19 188.061 6.71001 183.281C2.23001 178.501 -0.00665181 171.608 1.48588e-05 162.601V29.4314C1.48588e-05 20.0514 2.23668 12.8814 6.71001 7.9214C11.1833 2.9614 17.2 0.388064 24.76 0.201397C31.08 -0.165269 36.26 0.478064 40.3 2.1314C44.6455 4.00678 48.547 6.77699 51.75 10.2614C56.1876 15.0709 60.2811 20.1869 64 25.5714L110.36 89.8814V28.0114C110.36 19.0047 112.597 12.1114 117.07 7.3314C121.543 2.5514 128.083 0.174731 136.69 0.201397C145.303 0.201397 151.847 2.5914 156.32 7.3714C160.793 12.1514 163.02 19.0314 163 28.0114Z" fill="#848484"/>
<path d="M327.91 83.7116V162.712C327.91 171.692 325.67 178.562 321.19 183.322C316.71 188.082 310.083 190.458 301.31 190.452C292.697 190.452 286.067 188.075 281.42 183.322C278.412 180.152 276.336 176.214 275.42 171.942C272.185 176.938 267.957 181.216 263 184.512C256.407 188.845 248.457 191.012 239.15 191.012C228.257 191.012 219.08 188.812 211.62 184.412C204.075 179.911 198.17 173.112 194.77 165.012C190.99 156.465 189.1 145.852 189.1 133.172V83.7116C189.1 74.7183 191.473 67.6249 196.22 62.4316C200.967 57.2383 207.727 54.6416 216.5 54.6416C225.273 54.6416 232.033 57.2383 236.78 62.4316C241.527 67.6249 243.897 74.7183 243.89 83.7116V133.122C243.89 137.875 244.89 141.748 246.89 144.742C248.89 147.735 252.007 149.232 256.24 149.232C260.712 149.399 265.068 147.784 268.35 144.742C269.918 143.251 271.151 141.444 271.968 139.441C272.785 137.438 273.168 135.284 273.09 133.122V83.7116C273.09 74.7183 275.46 67.6249 280.2 62.4316C284.94 57.2383 291.703 54.6416 300.49 54.6416C309.263 54.6416 316.023 57.2383 320.77 62.4316C325.517 67.6249 327.897 74.7183 327.91 83.7116Z" fill="#848484"/>
<path d="M419.83 191.011C405.783 191.011 394.94 188.898 387.3 184.671C379.757 180.564 374.095 173.698 371.5 165.511C368.6 156.971 367.15 146.181 367.15 133.141V97.4409H361.26C358.209 97.4792 355.185 96.8655 352.39 95.6409C345.543 92.5542 342.123 86.4609 342.13 77.3609C342.13 70.8542 343.887 65.8775 347.4 62.4309C349.048 60.7716 351.012 59.4606 353.177 58.5758C355.341 57.6911 357.662 57.2507 360 57.2809H367.11V45.1309C367.11 36.1442 369.307 29.2742 373.7 24.5209C378.093 19.7675 384.677 17.3875 393.45 17.3809C402.23 17.3809 408.813 19.7609 413.2 24.5209C417.587 29.2809 419.783 36.1509 419.79 45.1309V57.2809H430.1C436.767 57.2809 441.86 58.9975 445.38 62.4309C448.9 65.8642 450.653 70.8409 450.64 77.3609C450.64 83.8809 448.887 88.8575 445.38 92.2909C441.873 95.7242 436.78 97.4409 430.1 97.4409H419.83V129.441C419.795 132.585 420.06 135.726 420.62 138.821C420.916 141.049 421.827 143.151 423.25 144.891C424.48 146.211 426.25 146.701 428.52 146.351C430.27 145.991 432.52 145.731 434.31 145.551C437.237 145.011 440.259 145.627 442.74 147.271C445.443 149.015 447.7 151.368 449.33 154.141C451.005 156.809 451.998 159.848 452.22 162.991C452.567 168.804 451.603 173.694 449.33 177.661C447.057 181.628 443.103 184.928 437.47 187.561C434.375 188.928 431.091 189.822 427.73 190.211C425.114 190.626 422.476 190.893 419.83 191.011Z" fill="#848484"/>
<path d="M575.22 76.6114C575.174 80.2136 574.553 83.7852 573.38 87.1914C572.117 90.9706 569.89 94.3553 566.92 97.0114C563.853 99.8447 559.42 101.511 553.62 102.011L547.3 102.541C541.68 103.075 537.16 104.221 533.74 105.981C530.494 107.565 527.857 110.167 526.23 113.391C524.65 116.571 523.86 120.718 523.86 125.831V160.491C523.86 169.491 521.49 176.771 516.75 182.331C512.01 187.891 505.163 190.668 496.21 190.661C487.07 190.661 480.09 187.885 475.27 182.331C470.45 176.778 468.027 169.498 468 160.491V84.2814C468 75.2814 470.333 68.0914 475 62.7114C479.667 57.3314 486.297 54.6414 494.89 54.6414C503.49 54.6414 510.073 57.0247 514.64 61.7914C518.547 65.8714 520.78 71.5047 521.34 78.6914C522.215 76.0934 523.322 73.5798 524.65 71.1814C527.454 65.8986 531.676 61.5024 536.842 58.487C542.007 55.4715 547.911 53.9563 553.89 54.1114C558.797 54.1114 562.797 55.3481 565.89 57.8214C568.887 60.1836 571.285 63.219 572.89 66.6814C574.376 69.7837 575.171 73.1718 575.22 76.6114Z" fill="#848484"/>
<path d="M616.06 190.662C607.193 190.662 600.363 188.015 595.57 182.722C590.777 177.428 588.383 169.928 588.39 160.222V85.8716C588.39 76.1716 590.783 68.5416 595.57 62.9816C600.357 57.4216 607.187 54.6416 616.06 54.6416C624.933 54.6416 631.763 57.4216 636.55 62.9816C641.337 68.5416 643.73 76.1716 643.73 85.8716V160.222C643.73 169.928 641.38 177.428 636.68 182.722C631.98 188.015 625.107 190.662 616.06 190.662Z" fill="#848484"/>
<path d="M616.06 51.2513C612.668 51.3086 609.3 50.675 606.161 49.3891C603.022 48.1031 600.177 46.1918 597.8 43.7713C595.381 41.4639 593.462 38.6828 592.165 35.6014C590.868 32.52 590.219 29.2044 590.26 25.8613C590.187 22.4455 590.819 19.0514 592.116 15.8908C593.414 12.7301 595.348 9.87081 597.8 7.49129C602.665 2.69122 609.225 0 616.06 0C622.895 0 629.455 2.69122 634.32 7.49129C636.772 9.87081 638.707 12.7301 640.004 15.8908C641.301 19.0514 641.933 22.4455 641.86 25.8613C641.901 29.2044 641.252 32.52 639.955 35.6014C638.658 38.6828 636.74 41.4639 634.32 43.7713C631.943 46.1918 629.098 48.1031 625.959 49.3891C622.82 50.675 619.452 51.3086 616.06 51.2513Z" fill="#848484"/>
<path d="M616.06 306.291C612.63 306.338 609.228 305.656 606.08 304.291C602.933 302.925 600.11 300.908 597.8 298.371C595.351 295.859 593.423 292.886 592.129 289.625C590.835 286.364 590.2 282.879 590.26 279.371C590.172 275.79 590.792 272.227 592.087 268.888C593.381 265.548 595.322 262.497 597.8 259.911C600.139 257.41 602.966 255.416 606.108 254.053C609.249 252.69 612.636 251.986 616.06 251.986C619.484 251.986 622.872 252.69 626.013 254.053C629.154 255.416 631.982 257.41 634.32 259.911C636.798 262.497 638.74 265.548 640.034 268.888C641.328 272.227 641.949 275.79 641.86 279.371C641.921 282.879 641.285 286.364 639.991 289.625C638.697 292.886 636.77 295.859 634.32 298.371C632.009 300.907 629.187 302.924 626.039 304.289C622.892 305.654 619.491 306.336 616.06 306.291Z" fill="#848484"/>
<path d="M156.62 271.201C152.34 266.121 147.61 263.581 142.43 263.581C138.785 263.558 135.161 264.146 131.71 265.321C128.337 266.481 124.97 269.018 121.61 272.931C118.25 276.845 114.677 282.991 110.89 291.371L82.07 356.371L53.07 291.371C49.4167 282.998 45.9467 276.851 42.66 272.931C39.3733 269.011 36.04 266.475 32.66 265.321C29.1392 264.136 25.4449 263.548 21.73 263.581C18.0512 263.694 14.5218 265.063 11.73 267.461C8.22432 270.323 5.3965 273.926 3.45 278.011C1.13673 282.75 -0.0182844 287.97 0.08 293.241V345.581H0L0.08 421.811C0.08 430.185 1.83333 436.641 5.34 441.181C8.84667 445.721 13.8933 447.991 20.48 447.991H26.34C34.94 447.991 41.48 445.461 45.96 440.401C50.44 435.341 52.68 428.041 52.68 418.501V380.331C52.6508 380.066 52.7282 379.8 52.8951 379.592C53.062 379.384 53.3048 379.251 53.57 379.221C53.8352 379.192 54.1012 379.27 54.3093 379.437C54.5175 379.603 54.6508 379.846 54.68 380.111L64.24 426.841C65.78 431.301 67.9867 434.635 70.86 436.841C73.8492 439.106 77.5211 440.284 81.27 440.181C85.0193 440.287 88.6923 439.109 91.68 436.841C94.5467 434.621 96.7533 431.288 98.3 426.841L108.41 378.381C108.441 378.116 108.575 377.874 108.784 377.708C108.993 377.542 109.26 377.466 109.525 377.496C109.79 377.527 110.032 377.662 110.198 377.871C110.364 378.08 110.441 378.346 110.41 378.611V418.451C110.41 427.991 112.647 435.291 117.12 440.351C121.593 445.411 128.137 447.941 136.75 447.941H142.69C149.277 447.941 154.323 445.671 157.83 441.131C161.337 436.591 163.06 430.138 163 421.771V291.371C163 283.005 160.873 276.281 156.62 271.201Z" fill="#848484"/>
<path d="M320 336.461C314.734 327.192 306.528 319.943 296.68 315.861C286.44 311.441 273.773 309.581 258.68 310.281C254.712 310.349 250.751 310.66 246.82 311.211C241.578 311.919 236.4 313.032 231.33 314.541C225.538 316.263 219.972 318.67 214.75 321.711C210.257 324.191 207.293 327.191 205.86 330.711C204.434 334.067 204.102 337.786 204.91 341.341C205.685 344.812 207.358 348.019 209.76 350.641C212.057 353.227 215.131 354.999 218.52 355.691C222.152 356.361 225.903 355.613 229 353.601C232.714 351.239 236.641 349.231 240.73 347.601C243.82 346.387 247.027 345.496 250.3 344.941C253.063 344.51 255.854 344.289 258.65 344.281C266.023 344.281 270.69 346.098 272.65 349.731C274.737 353.794 275.768 358.316 275.65 362.881V371.011L265.14 368.011C256.016 365.252 246.495 364.038 236.97 364.421C228.573 364.716 220.304 366.563 212.58 369.871C205.791 372.754 199.887 377.384 195.47 383.291C191.173 389.286 188.947 396.518 189.13 403.891C189.007 411.975 191.359 419.903 195.87 426.611C200.641 433.485 207.216 438.911 214.87 442.291C223.05 446.098 232.44 448.001 243.04 448.001C248.798 448.081 254.544 447.456 260.15 446.141C264.651 445.139 268.798 442.938 272.15 439.771C274.478 437.411 276.143 434.479 276.98 431.271C277.42 434.064 278.536 436.708 280.23 438.971C282.738 442.156 286.178 444.478 290.07 445.611C294.13 446.854 298.354 447.481 302.6 447.471C311.053 447.471 317.387 444.858 321.6 439.631C325.813 434.405 327.927 427.275 327.94 418.241V371.411C327.92 357.411 325.273 345.761 320 336.461ZM275.66 394.261C275.703 396.864 275.199 399.446 274.18 401.841C273.212 404.022 271.786 405.969 270 407.551C268.179 409.161 266.077 410.422 263.8 411.271C261.389 412.173 258.834 412.624 256.26 412.601C251.04 412.601 247.267 411.581 244.94 409.541C243.804 408.582 242.899 407.378 242.292 406.021C241.684 404.664 241.389 403.188 241.43 401.701C241.417 399.971 241.988 398.287 243.05 396.921C244.356 395.322 246.017 394.048 247.9 393.201C250.296 392.063 252.836 391.259 255.45 390.811C258.563 390.258 261.719 389.991 264.88 390.011H275.66V394.261Z" fill="#848484"/>
<path d="M419.83 447.941C405.783 447.941 394.94 445.814 387.3 441.561C379.746 437.419 374.086 430.518 371.5 422.301C368.6 413.708 367.15 402.854 367.15 389.741V353.871H360C357.651 353.906 355.32 353.464 353.148 352.572C350.975 351.68 349.006 350.356 347.36 348.681C343.84 345.228 342.083 340.228 342.09 333.681C342.097 327.134 343.853 322.134 347.36 318.681C349.005 317.003 350.974 315.677 353.146 314.782C355.319 313.886 357.65 313.44 360 313.471H367.11V301.251C367.11 292.211 369.307 285.301 373.7 280.521C378.093 275.741 384.677 273.347 393.45 273.341C402.23 273.341 408.813 275.734 413.2 280.521C417.587 285.308 419.783 292.217 419.79 301.251V313.471H430.1C436.767 313.471 441.86 315.198 445.38 318.651C448.9 322.104 450.653 327.104 450.64 333.651C450.64 340.198 448.887 345.198 445.38 348.651C441.873 352.104 436.78 353.834 430.1 353.841H419.83V386.011C419.795 389.175 420.06 392.336 420.62 395.451C420.915 397.691 421.826 399.806 423.25 401.561C424.48 402.891 426.25 403.381 428.52 403.021C430.27 402.671 432.52 402.401 434.31 402.221C437.238 401.679 440.262 402.3 442.74 403.951C445.445 405.71 447.701 408.076 449.33 410.861C451.007 413.546 452 416.602 452.22 419.761C452.567 425.614 451.603 430.531 449.33 434.511C447.057 438.491 443.103 441.824 437.47 444.511C434.374 445.877 431.091 446.774 427.73 447.171C425.113 447.576 422.476 447.833 419.83 447.941Z" fill="#848484"/>
<path d="M575.22 333.242C575.174 336.863 574.553 340.455 573.38 343.882C572.118 347.67 569.892 351.065 566.92 353.732C563.853 356.572 559.42 358.258 553.62 358.792L547.3 359.322C541.68 359.848 537.16 361.002 533.74 362.782C530.492 364.38 527.855 366.996 526.23 370.232C524.65 373.432 523.86 377.602 523.86 382.742V417.612C523.86 426.658 521.49 433.992 516.75 439.612C512.01 445.232 505.163 448.025 496.21 447.992C487.07 447.992 480.09 445.198 475.27 439.612C470.45 434.025 468.033 426.692 468.02 417.612V341.012C468.02 331.965 470.353 324.732 475.02 319.312C479.687 313.892 486.317 311.188 494.91 311.202C503.51 311.202 510.093 313.595 514.66 318.382C518.58 322.495 520.813 328.162 521.36 335.382C522.235 332.767 523.342 330.237 524.67 327.822C527.471 322.614 531.614 318.249 536.67 315.182C541.893 312.103 547.868 310.535 553.93 310.652C558.837 310.652 562.837 311.895 565.93 314.382C568.93 316.766 571.327 319.821 572.93 323.302C574.397 326.412 575.178 329.802 575.22 333.242Z" fill="#848484"/>
<path d="M616.12 447.941C607.233 447.941 600.39 445.274 595.59 439.941C590.79 434.608 588.39 427.068 588.39 417.321V342.551C588.39 332.791 590.79 325.124 595.59 319.551C600.39 313.978 607.233 311.184 616.12 311.171C625 311.171 631.843 313.964 636.65 319.551C641.457 325.138 643.853 332.804 643.84 342.551V417.341C643.84 427.101 641.487 434.641 636.78 439.961C632.073 445.281 625.187 447.941 616.12 447.941Z" fill="#848484"/>
</svg>
