<svg width="29" height="28" viewBox="0 0 29 28" fill="none" xmlns="http://www.w3.org/2000/svg">
<path d="M25.9125 11.7152H24.9553V11.6668H14.2603V16.3335H20.9762C19.9964 19.0501 17.3636 21.0002 14.2603 21.0002C10.3227 21.0002 7.13029 17.8659 7.13029 14.0002C7.13029 10.1344 10.3227 7.00016 14.2603 7.00016C16.0778 7.00016 17.7314 7.67333 18.9904 8.77291L22.3516 5.473C20.2293 3.53108 17.3904 2.3335 14.2603 2.3335C7.69772 2.3335 2.37695 7.55725 2.37695 14.0002C2.37695 20.4431 7.69772 25.6668 14.2603 25.6668C20.8229 25.6668 26.1436 20.4431 26.1436 14.0002C26.1436 13.2179 26.0616 12.4543 25.9125 11.7152Z" fill="#FFC107"/>
<path d="M3.74707 8.56991L7.65134 11.381C8.70777 8.81316 11.2662 7.00016 14.2603 7.00016C16.0778 7.00016 17.7314 7.67333 18.9904 8.77291L22.3516 5.473C20.2293 3.53108 17.3903 2.3335 14.2603 2.3335C9.69587 2.3335 5.73753 4.86341 3.74707 8.56991Z" fill="#FF3D00"/>
<path d="M14.2598 25.6666C17.3293 25.6666 20.1183 24.5133 22.227 22.6379L18.5491 19.5824C17.356 20.4697 15.873 20.9999 14.2598 20.9999C11.1689 20.9999 8.54451 19.065 7.55582 16.3647L3.68066 19.296C5.64736 23.0742 9.64134 25.6666 14.2598 25.6666Z" fill="#4CAF50"/>
<path d="M25.912 11.7149H24.9548V11.6665H14.2598V16.3332H20.9756C20.5051 17.6381 19.65 18.7633 18.5473 19.5829L18.5491 19.5818L22.2269 22.6373C21.9667 22.8694 26.1431 19.8332 26.1431 13.9998C26.1431 13.2176 26.0611 12.454 25.912 11.7149Z" fill="#1976D2"/>
</svg>
